PathFileType	4	(X/Y/Z)	Apose_0-50.trc
DataRate	CameraRate	NumFrames	NumMarkers	Units	OrigDataRate	OrigDataStartFrame	OrigNumFrames
30	30	6	22	m	30	20	50
Frame#	Time	Hip			RHip			RKnee			RAnkle			RBigToe			RSmallToe			RHeel			LHip			LKnee			LAnkle			LBigToe			LSmallToe			LHeel			Neck			Head			Nose			RShoulder			RElbow			RWrist			LShoulder			LElbow			LWrist		
		X1	Y1	Z1	X2	Y2	Z2	X3	Y3	Z3	X4	Y4	Z4	X5	Y5	Z5	X6	Y6	Z6	X7	Y7	Z7	X8	Y8	Z8	X9	Y9	Z9	X10	Y10	Z10	X11	Y11	Z11	X12	Y12	Z12	X13	Y13	Z13	X14	Y14	Z14	X15	Y15	Z15	X16	Y16	Z16	X17	Y17	Z17	X18	Y18	Z18	X19	Y19	Z19	X20	Y20	Z20	X21	Y21	Z21	X22	Y22	Z22
21	0.7	0.03247087679089374	0.9240086210488547	0.3565180429690688	0.021113383283372474	0.8874514241956019	0.4640039152167018	0.001867013928479259	0.5095933460501214	0.49767652968655546	-0.005553925128638295	0.10986301589085506	0.5159481133770092	0.1877959919005671	0.03276610285614565	0.5586389680226991	0.14420970214724346	0.033881640530013434	0.6289017215275845	-0.03857884884754492	0.036115423495347514	0.49709388521507236	0.026329936208014947	0.8854481069661854	0.24616623667725648	0.007344044156801928	0.5104729622461699	0.22555639157141769	0.0014684654003596202	0.12457208135855345	0.2057494530470758	0.2149628446535077	0.04906495943326614	0.18667513275443853	0.16537993753723682	0.03716673979581261	0.12304629550186004	-0.04317631699476072	0.0596955347776733	0.19579526938851988	0.05208506430432865	1.57490646307149	0.3480722992902632	0.2512837601777068	1.7624214136500156	0.33915345337729486	0.3110091391272541	1.6196627078415078	0.3313167505338619	0.020603978750648563	1.4967227664000349	0.5323870060204041	0.0515901249737361	1.2387275201387813	0.7156603009682322	0.1176375838882649	1.0519161218334478	0.8899834522488115	0.013690914374640343	1.4831094867299948	0.1472734739067662	0.024417235594808226	1.2276640203894091	0.0019878382493193616	0.07383983117108327	1.015011329880331	-0.15078419975935173
22	0.7333333333333333	0.033571243514956293	0.92203005176597	0.3570249743022671	0.02100185381230294	0.8865257844429881	0.4616004488020003	0.0013270693410885762	0.5080198565654724	0.49696688792918553	-0.00413718704713617	0.10936593805469134	0.5158674067010466	0.19078639084350724	0.03407569255891242	0.5611529133042119	0.14511475147846598	0.03346888381141667	0.6290158924996134	-0.03721727461406384	0.0360275913560681	0.49678767863387835	0.025744964067209546	0.8845569995294239	0.24466628660484085	0.008061527726302578	0.5089863554087832	0.22537252610885034	0.0026414832091856944	0.12282679618056368	0.20548766528333726	0.21431411616981824	0.05011045074603112	0.1857302360191187	0.16468473321019067	0.03821285326389387	0.12201666722681898	-0.044448934923115545	0.0606848479483152	0.19769710311486158	0.051442195011723195	1.5749994062994288	0.3474053425699336	0.3135051948918402	1.7726615056540087	0.2780407489170477	0.2267606650659781	1.578984008663464	0.32330886079608195	0.021952109659726635	1.498263722927154	0.5313743610424249	0.06270518217929501	1.228794483422911	0.726560914565761	0.11820981096418207	1.0518682344459458	0.8893641934182875	0.012981455255719162	1.4832196562306252	0.14652387831076855	0.026899351208450915	1.2285942520001867	0.001220106138243197	0.0748158315126151	1.0171104158128461	-0.15141378412968612
23	0.7666666666666667	0.03357119425225308	0.9215099826502764	0.35656497262813175	0.021864829765690118	0.8878122990261754	0.4635260075496038	0.0014158765376749457	0.5093998886048765	0.4965920962647354	-0.005844127705137197	0.1109881615955695	0.5158230492118747	0.18676977528783556	0.03326399565957969	0.5576371373137902	0.14377087925385082	0.03477017638632103	0.62683104747833	-0.038398375842580254	0.036254310477366734	0.4983965006728571	0.028144549755016096	0.884016975013737	0.24462181901945873	0.010659859871469494	0.5092571900553944	0.22503337294292353	0.0034007089820210926	0.12225190247789895	0.20571745887504864	0.21858898103249397	0.04833365290271871	0.18793070006822798	0.16514853825909095	0.038184922589874846	0.12310098048579002	-0.053699798771294695	0.03950643037003459	0.20800607774238566	0.06676714425465634	1.596423998932272	0.3552173489071136	0.25617914885697957	1.770611365813551	0.34889148472241827	0.22374407081191147	1.5808094337108385	0.3205087154792965	0.021427350811845724	1.497998226651671	0.5323231494006151	0.06278806705755667	1.2287215859023453	0.7264149566674354	0.11698046438980945	1.0514147992565812	0.8877927129916211	0.01401237777616241	1.483610985068011	0.14365999386263112	0.027659855485272656	1.229873096911503	0.0017805087741131415	0.0776128247164531	1.0158216453073496	-0.15380837878701867
24	0.8	0.0342137001071492	0.9242920980244428	0.356878649129582	0.023687207266918302	0.8890989558770838	0.46313257402457814	0.002306888266226331	0.5106110816461292	0.4974773170177006	-0.004114885398528553	0.10965998938213624	0.5146543651752987	0.1885170181755274	0.0343742253071051	0.5568997117119736	0.14398925387077652	0.0343343390052066	0.6251539158750186	-0.038924212438780165	0.035891339357704506	0.4966229710684656	0.028772122053103377	0.8839983848076278	0.24582122943714418	0.013350819202916295	0.5100155592031286	0.2232076990315043	0.0024044130499183245	0.12260564996608624	0.2038806282629223	0.21720633501929848	0.04682054563758546	0.1868752320391148	0.16574968590736008	0.03751755959867195	0.12348500103390306	-0.045170266567165746	0.061324192555679134	0.19820659297257145	0.06535486191152479	1.5971488552853341	0.3554412911439693	0.24768667020745236	1.7671682181928121	0.3400689729887015	0.310440817408218	1.6242083812270316	0.33212514437076385	0.02012043819678764	1.4986479957864844	0.5306657867114087	0.07013726015651942	1.2417978837263153	0.716011879946936	0.11838166506735187	1.0523715515206697	0.8889177035393135	0.013854497442547357	1.4843858698264734	0.14343248940596323	0.0284902983847687	1.2296945816573321	0.001512058885033905	0.08365369885343879	1.0224840410209286	-0.14852052945695074
25	0.8333333333333334	0.03182811067838595	0.9234114426770428	0.3565799969883342	0.02395884733600561	0.8825685970198782	0.4627195690137857	0.002599598268171949	0.5097793591211227	0.49492665070287545	-0.005109369731593253	0.11131025675080485	0.5147997184539405	0.1888886962704463	0.03189136818057301	0.5603547410763466	0.1462534484984241	0.03359496083907214	0.6278894617517138	-0.049042586739058903	0.046549434305940975	0.5049121717818695	0.025261618999827557	0.8827347250913864	0.24684683902943366	0.008823350739282865	0.5099923108776497	0.22482191988254277	0.00037037067809920403	0.12468270539776999	0.20661088130034772	0.21878638972622866	0.047835117239559424	0.1870842398791666	0.16480423951471804	0.034661705678018045	0.123066797309727	-0.044250839260333755	0.05801795709340338	0.20110508552155118	0.04991342093917941	1.577323686690414	0.3471024591479739	0.24293889910259975	1.7633032087101175	0.33456063694367655	0.2256426566909251	1.581445929759701	0.3217950710867255	0.020236565513090984	1.495984483563169	0.5336172420235747	0.07165737204550869	1.2416151565734388	0.7144644219633224	0.11607758940647125	1.053524072785577	0.8859968682544886	0.010918686327684444	1.4838784911875054	0.14432294446178967	0.028272335565011634	1.22829167100655	0.0018221421433612182	0.08504530407683543	1.023980947965751	-0.145843981451099
26	0.8666666666666667	0.03201507244254893	0.9229953143072922	0.3569541253699735	0.023288393858774573	0.881923282374588	0.4627009387477143	0.004011028892334567	0.5089140206837606	0.4959094757300435	-0.005435504221112309	0.11111618565857834	0.5151676834554156	0.189785601909866	0.03370780195298209	0.5618727010992807	0.14656399143337015	0.03414301937193778	0.6288730176306229	-0.035689135995817585	0.03660617965729131	0.4951905157460271	0.02644046437106859	0.8814697024976076	0.24585521643386568	0.011102401439478106	0.5083695485441931	0.22310682274699806	0.0014020197084686722	0.1243070531978149	0.2071427704612505	0.2199071522091716	0.047593984041236964	0.188588050651374	0.16804238111175118	0.03558412095545741	0.12441367890380221	-0.043086175438322515	0.05605823885371532	0.20013682016384027	0.05001155395755244	1.5775361150340232	0.34718997059390344	0.24104227610621334	1.7635063828203756	0.33657306569319945	0.3186456389976881	1.620899507729552	0.3367306371719952	0.020223713232626027	1.4956087849327095	0.5340784838818416	0.07151911997614013	1.240696147456407	0.7146739935757943	0.1166885262483566	1.0541554082778437	0.8867862584331629	0.01320126632562911	1.4837730346585543	0.14254752678602284	0.026040430652438194	1.2288860595911113	-0.00026433552349476504	0.0803514778413028	1.0217783256223891	-0.15200845444440284
